<?xml version="1.0" encoding="UTF-8" standalone="no"?>
<svg
   xmlns:dc="http://purl.org/dc/elements/1.1/"
   xmlns:cc="http://creativecommons.org/ns#"
   xmlns:rdf="http://www.w3.org/1999/02/22-rdf-syntax-ns#"
   xmlns:svg="http://www.w3.org/2000/svg"
   xmlns="http://www.w3.org/2000/svg"
   xmlns:sodipodi="http://sodipodi.sourceforge.net/DTD/sodipodi-0.dtd"
   xmlns:inkscape="http://www.inkscape.org/namespaces/inkscape"
   width="210mm"
   height="297mm"
   viewBox="0 0 210 297"
   version="1.1"
   id="svg8"
   inkscape:version="1.0.1 (c497b03c, 2020-09-10)"
   sodipodi:docname="moon.svg">
  <defs
     id="defs2" />
  <sodipodi:namedview
     id="base"
     pagecolor="#ffffff"
     bordercolor="#666666"
     borderopacity="1.0"
     inkscape:pageopacity="0.0"
     inkscape:pageshadow="2"
     inkscape:zoom="0.92803119"
     inkscape:cx="-175.89046"
     inkscape:cy="461.55668"
     inkscape:document-units="mm"
     inkscape:current-layer="layer1"
     inkscape:document-rotation="0"
     showgrid="false"
     inkscape:window-width="1252"
     inkscape:window-height="943"
     inkscape:window-x="44"
     inkscape:window-y="23"
     inkscape:window-maximized="0" />
  <metadata
     id="metadata5">
    <rdf:RDF>
      <cc:Work
         rdf:about="">
        <dc:format>image/svg+xml</dc:format>
        <dc:type
           rdf:resource="http://purl.org/dc/dcmitype/StillImage" />
        <dc:title />
      </cc:Work>
    </rdf:RDF>
  </metadata>
  <g
     inkscape:label="Layer 1"
     inkscape:groupmode="layer"
     id="layer1">
    <g
       id="g857"
       transform="translate(1.4255088,30.220787)">
      <circle
         style="fill:#e6e6e6;stroke:#4d4d4d;stroke-width:3;stroke-miterlimit:4;stroke-dasharray:none"
         id="path10"
         cx="80.508926"
         cy="147.78868"
         r="35.151787"
         inkscape:export-filename="/Users/sion/moon.png"
         inkscape:export-xdpi="30.145876"
         inkscape:export-ydpi="30.145876" />
      <circle
         style="fill:#e6e6e6;stroke:#4d4d4d;stroke-width:3;stroke-miterlimit:4;stroke-dasharray:none"
         id="circle835"
         cx="66.603279"
         cy="133.02954"
         r="8.7879467" />
      <circle
         style="fill:#f9f9f9;stroke:#4d4d4d;stroke-width:3;stroke-miterlimit:4;stroke-dasharray:none"
         id="circle837"
         cx="102.68643"
         cy="137.32001"
         r="4.3939734" />
      <circle
         style="fill:#333333;stroke:#4d4d4d;stroke-width:3;stroke-miterlimit:4;stroke-dasharray:none"
         id="circle839"
         cx="71.747253"
         cy="167.19232"
         r="4.3939734" />
      <circle
         style="fill:#999999;stroke:#4d4d4d;stroke-width:3;stroke-miterlimit:4;stroke-dasharray:none"
         id="circle841"
         cx="99.940765"
         cy="155.78371"
         r="8.7879467" />
    </g>
    <g
       id="g890"
       transform="translate(23.649987,-26.624115)"
       inkscape:export-filename="/Users/sion/earth.png"
       inkscape:export-xdpi="30"
       inkscape:export-ydpi="30">
      <circle
         style="fill:#24aae2;fill-opacity:1;stroke:#025eb2;stroke-width:3;stroke-miterlimit:4;stroke-dasharray:none;stroke-opacity:1"
         id="circle843"
         cx="-64.618004"
         cy="7.299634"
         r="140.60797"
         inkscape:export-filename="/Users/sion/earth.png"
         inkscape:export-xdpi="96"
         inkscape:export-ydpi="96" />
      <path
         id="circle854"
         style="fill:#8fc53f;fill-opacity:1;stroke:#32903a;stroke-width:11.3386;stroke-miterlimit:4;stroke-dasharray:none;stroke-opacity:1"
         d="m -648.10547,137.3457 a 386.89878,386.89878 0 0 0 -112.24805,16.85742 531.4317,531.4317 0 0 0 498.32032,404.51954 386.89878,386.89878 0 0 0 1.53906,-34.47852 386.89878,386.89878 0 0 0 -386.89844,-386.89844 386.89878,386.89878 0 0 0 -0.71289,0 z"
         transform="scale(0.26458333)"
         inkscape:export-filename="/Users/sion/earth.png"
         inkscape:export-xdpi="96"
         inkscape:export-ydpi="96" />
      <path
         id="circle861"
         style="fill:#8fc53f;fill-opacity:1;stroke:#32903a;stroke-width:11.3386;stroke-miterlimit:4;stroke-dasharray:none;stroke-opacity:1"
         d="M 256.69531,-149.88281 A 386.89878,386.89878 0 0 0 143.07227,123.99805 386.89878,386.89878 0 0 0 197.87305,322.49414 531.4317,531.4317 0 0 0 287.20703,27.589844 531.4317,531.4317 0 0 0 256.69531,-149.88281 Z"
         transform="scale(0.26458333)"
         inkscape:export-filename="/Users/sion/earth.png"
         inkscape:export-xdpi="96"
         inkscape:export-ydpi="96" />
      <path
         id="circle863"
         style="fill:#8fc53f;fill-opacity:1;stroke:#32903a;stroke-width:11.3386;stroke-miterlimit:4;stroke-dasharray:none;stroke-opacity:1"
         d="m -245.44141,-503.8418 a 531.4317,531.4317 0 0 0 -471.39062,288.40625 329.33381,326.41231 0 0 0 224.2793,87.39063 329.33381,326.41231 0 0 0 329.33398,-326.41211 329.33381,326.41231 0 0 0 -2.95508,-43.62109 531.4317,531.4317 0 0 0 -78.05078,-5.76368 531.4317,531.4317 0 0 0 -1.2168,0 z"
         transform="scale(0.26458333)"
         inkscape:export-filename="/Users/sion/earth.png"
         inkscape:export-xdpi="96"
         inkscape:export-ydpi="96" />
      <ellipse
         style="fill:#f9f9f9;fill-opacity:1;stroke:#cccccc;stroke-width:3;stroke-miterlimit:4;stroke-dasharray:none;stroke-opacity:1"
         id="ellipse865"
         cx="-37.427975"
         cy="7.1296854"
         rx="43.747822"
         ry="43.747818"
         inkscape:export-filename="/Users/sion/earth.png"
         inkscape:export-xdpi="96"
         inkscape:export-ydpi="96" />
      <circle
         style="fill:none;fill-opacity:1;stroke:#025eb2;stroke-width:3;stroke-miterlimit:4;stroke-dasharray:none;stroke-opacity:1"
         id="circle882"
         cx="-64.618004"
         cy="7.299634"
         r="140.60797"
         inkscape:export-filename="/Users/sion/earth.png"
         inkscape:export-xdpi="96"
         inkscape:export-ydpi="96" />
    </g>
    <g
       id="g855">
      <path
         id="circle940"
         style="fill:#ba6939;stroke:#4f322f;stroke-width:11.3386;stroke-miterlimit:4;stroke-dasharray:none;fill-opacity:1;stroke-opacity:1"
         d="M -335.31836 629.32812 A 43.498172 43.498169 0 0 0 -352.01562 632.70703 A 20.062362 20.062369 0 0 1 -351.20898 638.33594 A 20.062362 20.062369 0 0 1 -371.27148 658.39844 A 20.062362 20.062369 0 0 1 -376.0332 657.82227 A 43.498172 43.498169 0 0 0 -378.70508 672.82617 A 43.498172 43.498169 0 0 0 -363.54883 705.82227 A 20.062411 20.062397 77.605092 0 1 -354 700.73828 A 20.062411 20.062397 77.605092 0 1 -330.09961 716.02344 A 43.498172 43.498169 0 0 0 -291.70898 672.82617 A 43.498172 43.498169 0 0 0 -294.62305 657.17578 A 26.514564 26.764303 56.873156 0 1 -315.22461 645.25977 A 26.514564 26.764303 56.873156 0 1 -319.46289 632.2793 A 43.498172 43.498169 0 0 0 -335.20703 629.32812 A 43.498172 43.498169 0 0 0 -335.31836 629.32812 z "
         transform="scale(0.26458333)"
         inkscape:export-filename="/Users/sion/asteroid.png"
         inkscape:export-xdpi="30"
         inkscape:export-ydpi="30" />
      <ellipse
         style="fill:#333333;stroke:#4d4d4d;stroke-width:3.05397;stroke-miterlimit:4;stroke-dasharray:none"
         id="circle839-0"
         cx="-88.148109"
         cy="177.47375"
         rx="4.4730163"
         ry="4.4730177"
         inkscape:export-filename="/Users/sion/asteroid.png"
         inkscape:export-xdpi="30"
         inkscape:export-ydpi="30" />
    </g>
  </g>
</svg>
